<?xml version="1.0" encoding="iso-8859-1"?>
<!-- Generator: Adobe Illustrator 17.1.0, SVG Export Plug-In . SVG Version: 6.00 Build 0)  -->
<!DOCTYPE svg PUBLIC "-//W3C//DTD SVG 1.1//EN" "http://www.w3.org/Graphics/SVG/1.1/DTD/svg11.dtd">
<svg version="1.1" id="Capa_1" xmlns="http://www.w3.org/2000/svg" xmlns:xlink="http://www.w3.org/1999/xlink" x="0px" y="0px"
	 viewBox="0 0 406.832 406.832" style="enable-background:new 0 0 406.832 406.832;" xml:space="preserve">
<path d="M203.415,330.389c22.999,0,41.71-18.71,41.71-41.709V30.256c0-5.523-4.478-10-10-10h-63.42c-5.522,0-10,4.477-10,10V288.68
	C161.705,311.678,180.416,330.389,203.415,330.389z M181.705,40.256h43.42V288.68c0,11.97-9.739,21.709-21.71,21.709
	s-21.71-9.739-21.71-21.709V40.256z M193.415,288.515v-96.823c0-5.523,4.478-10,10-10s10,4.477,10,10v96.823c0,5.523-4.478,10-10,10
	S193.415,294.038,193.415,288.515z M88.479,288.515V138.608c0-5.523,4.478-10,10-10s10,4.477,10,10v149.907c0,5.523-4.478,10-10,10
	S88.479,294.038,88.479,288.515z M396.832,366.574h-5.599V136.969h5.599c5.522,0,10-4.477,10-10s-4.478-10-10-10h-15.376
	c-0.146-0.003-0.298-0.003-0.446,0h-30.946V30.256c0-5.523-4.478-10-10-10h-63.421c-5.522,0-10,4.477-10,10V288.68
	c0,22.999,18.712,41.709,41.711,41.709s41.71-18.71,41.71-41.709V136.969h21.17v229.605H35.597V136.969h21.172V288.68
	c0,22.999,18.711,41.709,41.71,41.709c22.998,0,41.709-18.71,41.709-41.709V30.256c0-5.523-4.478-10-10-10H66.769
	c-5.522,0-10,4.477-10,10v86.713H25.819c-0.146-0.003-0.299-0.003-0.445,0H10c-5.522,0-10,4.477-10,10s4.478,10,10,10h5.597v229.605
	H10c-5.522,0-10,4.477-10,10s4.478,10,10,10h15.374c0.146,0.003,0.299,0.003,0.445,0h355.19c0.074,0.001,0.149,0.002,0.224,0.002
	s0.149-0.001,0.223-0.002h15.376c5.522,0,10-4.477,10-10S402.354,366.574,396.832,366.574z M330.063,288.68
	c0,11.97-9.739,21.709-21.71,21.709c-11.972,0-21.711-9.739-21.711-21.709V40.256h43.421V288.68z M76.769,40.256h43.419V288.68
	c0,11.97-9.738,21.709-21.709,21.709s-21.71-9.739-21.71-21.709V40.256z M298.354,288.515V97.84c0-5.523,4.478-10,10-10
	s10,4.477,10,10v190.675c0,5.523-4.478,10-10,10S298.354,294.038,298.354,288.515z"/>
<g>
</g>
<g>
</g>
<g>
</g>
<g>
</g>
<g>
</g>
<g>
</g>
<g>
</g>
<g>
</g>
<g>
</g>
<g>
</g>
<g>
</g>
<g>
</g>
<g>
</g>
<g>
</g>
<g>
</g>
</svg>
