<?xml version="1.0" encoding="UTF-8"?>
<svg width="65px" height="65px" viewBox="0 0 65 65" version="1.1" xmlns="http://www.w3.org/2000/svg" xmlns:xlink="http://www.w3.org/1999/xlink">
    <!-- Generator: Sketch 48.2 (47327) - http://www.bohemiancoding.com/sketch -->
    <title>careNavIcon</title>
    <desc>Created with Sketch.</desc>
    <defs></defs>
    <g id="Homepage-v1---Brand" stroke="none" stroke-width="1" fill="none" fill-rule="evenodd" transform="translate(-161.000000, -1228.000000)">
        <g id="Fingertip-Block" transform="translate(61.000000, 837.000000)">
            <g id="Group-9" transform="translate(0.000000, 391.000000)">
                <g id="careNavIcon" transform="translate(100.000000, 0.000000)">
                    <circle id="Oval" fill="#FFFFFF" fill-rule="nonzero" cx="32.5" cy="32.5" r="31.434"></circle>
                    <path d="M54.808,11.271 C52.7985557,9.16906614 50.5058094,7.35762152 47.996,5.889 L47.047,5.356 C52.3753033,12.7080347 54.1877532,22.036681 52,30.849 C51.3023101,33.6713485 50.1988155,36.3775377 48.724,38.883 C47.2749675,41.3986913 45.4662034,43.6892085 43.355,45.682 C33.71772,54.8457885 19.2897714,56.7953697 7.566,50.518 C8.36083742,51.6404412 9.22941945,52.7087971 10.166,53.716 C15.7960979,59.6293268 23.5447679,63.0637561 31.7072105,63.2636725 C39.8696532,63.463589 47.7771652,60.4126146 53.69,54.782 C57.9375722,50.7607901 60.957735,45.617498 62.4,39.949 C64.9410238,29.7203551 62.0772011,18.9025591 54.808,11.271 Z" id="Shape" fill="#EBF2F3" fill-rule="nonzero"></path>
                    <path d="M62.4,39.949 C65.7493893,26.6484614 59.8914348,12.7369612 48.0366008,5.83872619 C36.1817668,-1.05950886 21.1926227,0.721227903 11.284,10.205 C7.03931928,14.2294484 4.02737942,19.3786031 2.6,25.051 C0.0756808845,35.2508206 2.92824075,46.0336929 10.166,53.651 C14.1942255,57.9241119 19.3579966,60.9592368 25.051,62.4 C35.2733867,64.9446908 46.0871644,62.0855378 53.716,54.821 C57.9649062,50.7894537 60.9771651,45.6307349 62.4,39.949 Z" id="Shape" stroke="#333333" stroke-width="2" stroke-linecap="round" stroke-linejoin="round"></path>
                    <path d="M63.271,33.8 L57.889,33.8 C57.1710298,33.8 56.589,33.2179702 56.589,32.5 C56.589,31.7820298 57.1710298,31.2 57.889,31.2 L63.271,31.2 C63.9889702,31.2 64.571,31.7820298 64.571,32.5 C64.571,33.2179702 63.9889702,33.8 63.271,33.8 Z" id="Shape" fill="#333333" fill-rule="nonzero"></path>
                    <path d="M7.098,33.8 L1.716,33.8 C0.998029825,33.8 0.416,33.2179702 0.416,32.5 C0.416,31.7820298 0.998029825,31.2 1.716,31.2 L7.098,31.2 C7.81597017,31.2 8.398,31.7820298 8.398,32.5 C8.398,33.2179702 7.81597017,33.8 7.098,33.8 Z" id="Shape" fill="#333333" fill-rule="nonzero"></path>
                    <path d="M32.5,8.411 C31.7820298,8.411 31.2,7.82897017 31.2,7.111 L31.2,1.716 C31.2,0.998029825 31.7820298,0.416 32.5,0.416 C33.2179702,0.416 33.8,0.998029825 33.8,1.716 L33.8,7.098 C33.8034705,7.44502834 33.6680402,7.77903797 33.4238657,8.02565417 C33.1796913,8.27227037 32.8470457,8.41101735 32.5,8.411 Z" id="Shape" fill="#333333" fill-rule="nonzero"></path>
                    <path d="M32.5,64.584 C31.7820298,64.584 31.2,64.0019702 31.2,63.284 L31.2,57.889 C31.2,57.1710298 31.7820298,56.589 32.5,56.589 C33.2179702,56.589 33.8,57.1710298 33.8,57.889 L33.8,63.271 C33.8034705,63.6180283 33.6680402,63.952038 33.4238657,64.1986542 C33.1796913,64.4452704 32.8470457,64.5840174 32.5,64.584 Z" id="Shape" fill="#333333" fill-rule="nonzero"></path>
                    <path d="M36.699,34.853 C36.6260563,34.998718 36.5342697,35.1342125 36.426,35.256 L23.27,51.688 C23.14,51.831 22.997,51.688 23.023,51.571 L28.132,31.2 C28.1977014,30.8943729 28.3359186,30.6090212 28.535,30.368 L41.73,13.845 C41.86,13.702 42.016,13.845 41.977,13.962 L36.855,34.437 C36.8196978,34.5813676 36.7673291,34.7210175 36.699,34.853 Z" id="Shape" fill="#F74A2A" fill-rule="nonzero"></path>
                    <path d="M36.699,34.853 L28.288,30.68 C28.3548497,30.5448444 28.437784,30.4182605 28.535,30.303 L41.73,13.845 C41.86,13.702 42.016,13.845 41.977,13.962 L36.855,34.437 C36.8196978,34.5813676 36.7673291,34.7210175 36.699,34.853 Z" id="Shape" fill="#00BCD3" fill-rule="nonzero"></path>
                    <circle id="Oval" fill="#FFFFFF" fill-rule="nonzero" transform="translate(32.490258, 32.767129) rotate(-63.630000) translate(-32.490258, -32.767129) " cx="32.4902579" cy="32.7671286" r="3.783"></circle>
                    <path d="M32.5,37.531 C30.3720574,37.5204904 28.5098313,36.0983079 27.9395455,34.0481801 C27.3692598,31.9980523 28.2295973,29.818532 30.0464487,28.7106958 C31.8633001,27.6028596 34.1948408,27.8361126 35.7562199,29.2819152 C37.3175991,30.7277178 37.7291182,33.0344777 36.764,34.931 C35.9459989,36.5317719 34.2976546,37.5368599 32.5,37.531 Z M32.5,29.9 C31.1141704,29.8968312 29.9332661,30.9051631 29.7192617,32.274373 C29.5052572,33.643583 30.3221571,34.9641672 31.6428594,35.3840233 C32.9635617,35.8038793 34.3930705,35.1974365 35.009,33.956 C35.4403375,33.0866177 35.3921689,32.0561341 34.881613,31.2307795 C34.3710571,30.4054249 33.4705012,29.9022192 32.5,29.9 Z" id="Shape" fill="#333333" fill-rule="nonzero"></path>
                </g>
            </g>
        </g>
    </g>
</svg>