<?xml version="1.0" encoding="UTF-8"?>
<svg width="66px" height="64px" viewBox="0 0 66 64" version="1.1" xmlns="http://www.w3.org/2000/svg" xmlns:xlink="http://www.w3.org/1999/xlink">
    <!-- Generator: Sketch 48.2 (47327) - http://www.bohemiancoding.com/sketch -->
    <title>dashboardIconAppointments-07</title>
    <desc>Created with Sketch.</desc>
    <defs></defs>
    <g id="Homepage-v1---Brand" stroke="none" stroke-width="1" fill="none" fill-rule="evenodd" transform="translate(-458.000000, -1228.000000)">
        <g id="Fingertip-Block" transform="translate(61.000000, 837.000000)" fill-rule="nonzero">
            <g id="Group-10" transform="translate(299.000000, 391.000000)">
                <g id="dashboardIconAppointments-07" transform="translate(98.000000, 0.000000)">
                    <path d="M20.0142963,35.1407407 C20.0142963,35.5792957 19.6598882,35.9348148 19.2227037,35.9348148 L14.4967778,35.9348148 C14.0595933,35.9348148 13.7051852,35.5792957 13.7051852,35.1407407 C13.7051852,34.7021857 14.0595933,34.3466667 14.4967778,34.3466667 L19.2227037,34.3466667 C19.6572331,34.3530311 20.0079518,34.7048492 20.0142963,35.1407407 Z" id="Shape" fill="#FFFFFF"></path>
                    <path d="M23.157037,35.1407407 C23.1569888,34.7067728 23.5042512,34.3531438 23.9368148,34.3466667 L28.6627407,34.3466667 C29.0999253,34.3466667 29.4543333,34.7021857 29.4543333,35.1407407 C29.4543333,35.5792957 29.0999253,35.9348148 28.6627407,35.9348148 L23.9368148,35.9348148 C23.5042512,35.9283377 23.1569888,35.5747087 23.157037,35.1407407 Z" id="Shape" fill="#FFFFFF"></path>
                    <path d="M27.6466667,26.9748148 C27.6466667,23.9049298 30.1275232,21.4162963 33.1878148,21.4162963 C36.2481064,21.4162963 38.728963,23.9049298 38.728963,26.9748148 C38.728963,30.0446998 36.2481064,32.5333333 33.1878148,32.5333333 C30.1275232,32.5333333 27.6466667,30.0446998 27.6466667,26.9748148 Z" id="Shape" fill="#FFFFFF"></path>
                    <path d="M38.8471111,35.1407407 C38.8471593,35.5747087 38.4998969,35.9283377 38.0673333,35.9348148 L33.3414074,35.9348148 C32.9042229,35.9348148 32.5498148,35.5792957 32.5498148,35.1407407 C32.5498148,34.7021857 32.9042229,34.3466667 33.3414074,34.3466667 L38.0673333,34.3466667 C38.4998969,34.3531438 38.8471593,34.7067728 38.8471111,35.1407407 Z" id="Shape" fill="#FFFFFF"></path>
                    <path d="M43.9629259,46.4948148 L43.9629259,48.6637037 C43.9633332,49.1083619 43.6141948,49.4742767 43.1713333,49.4933333 C39.9104444,49.6237037 36.5195926,49.7066667 33.0105926,49.7066667 C29.5015926,49.7066667 26.2170741,49.6355556 23.0034444,49.4933333 C22.5605829,49.4742767 22.2114446,49.1083619 22.2118519,48.6637037 L22.2118519,46.4948148 C22.2118519,41.9437037 27.0795556,38.1985185 33.0932963,38.1985185 C39.107037,38.1985185 43.9629259,41.9437037 43.9629259,46.4948148 Z" id="Shape" fill="#FFFFFF"></path>
                    <path d="M48.2635185,35.1407407 C48.2635667,35.5747087 47.9163044,35.9283377 47.4837407,35.9348148 L42.7578148,35.9348148 C42.3206303,35.9348148 41.9662222,35.5792957 41.9662222,35.1407407 C41.9662222,34.7021857 42.3206303,34.3466667 42.7578148,34.3466667 L47.4837407,34.3466667 C47.9163044,34.3531438 48.2635667,34.7067728 48.2635185,35.1407407 Z" id="Shape" fill="#FFFFFF"></path>
                    <path d="M57.6799259,35.1407407 C57.6799741,35.5747087 57.3327118,35.9283377 56.9001481,35.9348148 L52.1742222,35.9348148 C51.7370377,35.9348148 51.3826296,35.5792957 51.3826296,35.1407407 C51.3826296,34.7021857 51.7370377,34.3466667 52.1742222,34.3466667 L56.9001481,34.3466667 C57.3327118,34.3531438 57.6799741,34.7067728 57.6799259,35.1407407 Z" id="Shape" fill="#FFFFFF"></path>
                    <path d="M59.9838148,15.9644444 L59.9838148,19.3066667 L6.27366667,19.3066667 L6.27366667,15.9644444 C6.27366455,13.6363427 7.19641716,11.4037667 8.83859699,9.75866206 C10.4807768,8.11355744 12.7076201,7.19092799 15.0284444,7.19407407 L19.4235556,7.19407407 L19.4235556,9.35111111 C19.4204072,9.78693727 19.5907948,10.2059985 19.8969043,10.5152927 C20.2030139,10.824587 20.6195244,10.99853 21.054,10.9985185 L21.2666667,10.9985185 C21.7011423,10.99853 22.1176528,10.824587 22.4237623,10.5152927 C22.7298719,10.2059985 22.9002595,9.78693727 22.8971111,9.35111111 L22.8971111,7.19407407 L43.2776667,7.19407407 L43.2776667,9.35111111 C43.2745218,9.78489082 43.4432914,10.202156 43.7468458,10.5111073 C44.0504002,10.8200587 44.463872,10.9953866 44.8962963,10.9985185 L45.1562222,10.9985185 C45.5886465,10.9953866 46.0021183,10.8200587 46.3056727,10.5111073 C46.6092271,10.202156 46.7779967,9.78489082 46.7748519,9.35111111 L46.7748519,7.19407407 L51.229037,7.19407407 C53.1709107,7.19102218 55.058384,7.83744393 56.592963,9.03111111 C57.2524284,9.55237719 57.8368872,10.1625984 58.3297407,10.8444444 C58.7919648,11.4844597 59.161869,12.1866878 59.4285185,12.9303704 C59.6836095,13.5922068 59.8466103,14.2861351 59.9129259,14.9925926 C59.9600109,15.3143909 59.983703,15.6391983 59.9838148,15.9644444 Z" id="Shape" fill="#F74A2A"></path>
                    <path d="M59.9129259,53.3333333 C59.828517,54.0951368 59.6376063,54.8412249 59.3458148,55.5496296 C59.0123579,56.2363133 58.6168774,56.8909018 58.1643333,57.5051852 C57.673807,58.1372436 57.1281727,58.724251 56.5338889,59.2592593 C55.7369077,59.8664948 54.8416599,60.3315585 53.8873704,60.6340741 C53.0301441,60.8999391 52.1381134,61.0357611 51.2408519,61.037037 L15.0284444,61.037037 C12.5566013,61.0335107 10.2011102,59.983344 8.54211111,58.1451852 C7.66548686,57.1661369 7.0158733,56.0045 6.63992593,54.7437037 C6.49899357,54.2835494 6.40012851,53.8114765 6.34455556,53.3333333 C6.78086476,53.4150815 7.22396988,53.4547685 7.66781481,53.4518519 L58.6014815,53.4518519 C59.0413995,53.4544473 59.4805538,53.4147599 59.9129259,53.3333333 Z" id="Shape" fill="#EBF2F3"></path>
                    <path d="M19.2227037,34.3703704 L14.4967778,34.3703704 C14.0595933,34.3703704 13.7051852,34.7258894 13.7051852,35.1644444 C13.7051852,35.6029994 14.0595933,35.9585185 14.4967778,35.9585185 L19.2227037,35.9585185 C19.6598882,35.9585185 20.0142963,35.6029994 20.0142963,35.1644444 C20.0142963,34.7258894 19.6598882,34.3703704 19.2227037,34.3703704 Z M28.6745556,34.3703704 L23.9486296,34.3703704 C23.5114451,34.3703704 23.157037,34.7258894 23.157037,35.1644444 C23.157037,35.6029994 23.5114451,35.9585185 23.9486296,35.9585185 L28.6745556,35.9585185 C29.1117401,35.9585185 29.4661481,35.6029994 29.4661481,35.1644444 C29.4661481,34.7258894 29.1117401,34.3703704 28.6745556,34.3703704 Z M38.1264074,34.3703704 L33.4004815,34.3703704 C32.963297,34.3703704 32.6088889,34.7258894 32.6088889,35.1644444 C32.6088889,35.6029994 32.963297,35.9585185 33.4004815,35.9585185 L38.1264074,35.9585185 C38.5635919,35.9585185 38.918,35.6029994 38.918,35.1644444 C38.918,34.7258894 38.5635919,34.3703704 38.1264074,34.3703704 Z M47.5782593,34.3703704 L42.8523333,34.3703704 C42.4151488,34.3703704 42.0607407,34.7258894 42.0607407,35.1644444 C42.0607407,35.6029994 42.4151488,35.9585185 42.8523333,35.9585185 L47.5782593,35.9585185 C48.0154438,35.9585185 48.3698519,35.6029994 48.3698519,35.1644444 C48.3698519,34.7258894 48.0154438,34.3703704 47.5782593,34.3703704 Z M57.0301111,34.3703704 L52.3041852,34.3703704 C51.8670007,34.3703704 51.5125926,34.7258894 51.5125926,35.1644444 C51.5125926,35.6029994 51.8670007,35.9585185 52.3041852,35.9585185 L57.0301111,35.9585185 C57.4672956,35.9585185 57.8217037,35.6029994 57.8217037,35.1644444 C57.8217037,34.7258894 57.4672956,34.3703704 57.0301111,34.3703704 Z" id="Shape" fill="#333333"></path>
                    <path d="M65.2886667,43.3303704 C64.9832428,42.1918015 64.612426,41.0719067 64.1780741,39.9762963 C64.1071852,39.762963 64.0008519,39.5377778 63.9417778,39.3481481 L62.3467778,34.9274074 L62.3467778,15.9644444 C62.3524812,15.5484707 62.3287923,15.1326143 62.2758889,14.72 C62.1811588,13.8284159 61.9747408,12.9523712 61.6615185,12.1125926 C61.3216641,11.172193 60.8481156,10.2859971 60.2555556,9.48148148 C59.6418863,8.60904715 58.9011101,7.8339876 58.058,7.18222222 C56.1191035,5.64821538 53.7220411,4.81329292 51.2526667,4.81185185 L46.7866667,4.81185185 L46.7866667,2.18074074 C46.7802313,1.28668158 46.0593023,0.56349259 45.168037,0.557037037 L44.8962963,0.557037037 C44.0004206,0.557013442 43.2723437,1.28208021 43.2658519,2.18074074 L43.2658519,4.83555556 L22.9207407,4.83555556 L22.9207407,2.18074074 C22.917681,1.745935 22.7408997,1.33052714 22.4299894,1.02755318 C22.1190791,0.724579214 21.7000203,0.559356525 21.2666667,0.568888889 L21.0185556,0.568888889 C20.5872249,0.565730536 20.1724783,0.735403523 19.8663663,1.04025003 C19.5602542,1.34509654 19.3880996,1.75989824 19.3881111,2.19259259 L19.3881111,4.83555556 L15.0284444,4.83555556 C11.4537109,4.84032614 8.09931723,6.56908672 6.01374074,9.48148148 C4.65119209,11.3702564 3.92294135,13.6448725 3.93433333,15.9762963 L3.93433333,34.9392593 L0.779777778,43.6385185 C-0.410589376,46.9500401 0.907465837,50.6432167 3.92251852,52.4444444 C3.92796732,52.8407469 3.95557861,53.2364305 4.00522222,53.6296296 C4.0765613,54.2267592 4.19508236,54.8172591 4.35966667,55.3955556 C5.76428524,60.1163228 10.0818938,63.3598679 14.993,63.3837037 L51.229037,63.3837037 C53.6760028,63.3830072 56.0548324,62.5750846 57.9989259,61.0844444 L58.0698148,61.0133333 C58.7698305,60.3657804 59.4140596,59.660061 59.9956296,58.9037037 C60.5529947,58.1563089 61.047004,57.3634163 61.4724815,56.5333333 C61.4670694,56.5059455 61.4670694,56.4777582 61.4724815,56.4503704 C61.9886438,55.148124 62.2648624,53.7627013 62.2877037,52.3614815 C63.2281463,51.8160469 64.0354147,51.0669829 64.6506667,50.1688889 C65.3430965,49.211555 65.7525731,48.0778566 65.8321481,46.8977778 C65.8321104,45.6878959 65.6488596,44.4850394 65.2886667,43.3303704 Z M59.9129259,53.3333333 C59.8318385,54.094474 59.6449258,54.8404793 59.3576296,55.5496296 C59.1804074,55.8933333 59.0031852,56.2251852 58.7905185,56.557037 C58.5778519,56.8888889 58.4833333,57.0311111 58.3179259,57.2562963 C58.1525185,57.4814815 58.1997778,57.4340741 58.1288889,57.5051852 C57.7619833,57.9785469 57.3674661,58.4297063 56.9474074,58.8562963 L56.5102593,59.2592593 C56.1121339,59.5629801 55.6892483,59.8325723 55.2460741,60.0651852 C54.804554,60.2900092 54.3463454,60.4802071 53.8755556,60.6340741 C53.0182503,60.8995929 52.1262717,61.0354069 51.229037,61.037037 L15.0284444,61.037037 C12.8760411,61.0392907 10.7982401,60.2460698 9.19192593,58.8088889 C8.96350617,58.6034568 8.74690123,58.3861728 8.54211111,58.157037 C8.21262729,57.7888377 7.9161113,57.3922437 7.656,56.9718519 C7.21490671,56.2805627 6.87286924,55.5305089 6.63992593,54.7437037 C6.56903704,54.5303704 6.52177778,54.3051852 6.4627037,54.0681481 C6.40362963,53.8311111 6.39181481,53.5940741 6.35637037,53.3451852 C6.54370924,53.3834725 6.73304467,53.4111705 6.92348148,53.4281481 L7.00618519,53.4281481 L7.66781481,53.4281481 L58.6014815,53.4281481 L59.2512963,53.4281481 L59.9011111,53.3333333 L59.9129259,53.3333333 Z M62.713037,48.8888889 C62.1349127,49.740892 61.3101597,50.3944893 60.3500741,50.7614815 C59.825071,50.941021 59.2743013,51.0331037 58.7196296,51.0340741 L7.66781481,51.0340741 C7.11258979,51.0399974 6.56066815,50.9477221 6.03737037,50.7614815 L5.90740741,50.7614815 C3.34367646,49.8110959 2.02466799,46.9636915 2.9537037,44.3851852 L6.02555556,35.8637037 L9.78266667,35.8637037 C10.2198512,35.8637037 10.5742593,35.5081846 10.5742593,35.0696296 C10.5742593,34.6310746 10.2198512,34.2755556 9.78266667,34.2755556 L6.23822222,34.2755556 L6.23822222,15.9644444 C6.2382201,13.6363427 7.16097271,11.4037667 8.80315254,9.75866206 C10.4453324,8.11355744 12.6721757,7.19092799 14.993,7.19407407 L19.3881111,7.19407407 L19.3881111,9.35111111 C19.3849627,9.78693727 19.5553503,10.2059985 19.8614599,10.5152927 C20.1675694,10.824587 20.5840799,10.99853 21.0185556,10.9985185 L21.2666667,10.9985185 C21.7011423,10.99853 22.1176528,10.824587 22.4237623,10.5152927 C22.7298719,10.2059985 22.9002595,9.78693727 22.8971111,9.35111111 L22.8971111,7.19407407 L43.2776667,7.19407407 L43.2776667,9.35111111 C43.2745218,9.78489082 43.4432914,10.202156 43.7468458,10.5111073 C44.0504002,10.8200587 44.463872,10.9953866 44.8962963,10.9985185 L45.1562222,10.9985185 C45.5886465,10.9953866 46.0021183,10.8200587 46.3056727,10.5111073 C46.6092271,10.202156 46.7779967,9.78489082 46.7748519,9.35111111 L46.7748519,7.19407407 L51.229037,7.19407407 C53.1709107,7.19102218 55.058384,7.83744393 56.592963,9.03111111 C57.2524284,9.55237719 57.8368872,10.1625984 58.3297407,10.8444444 C58.7919648,11.4844597 59.161869,12.1866878 59.4285185,12.9303704 C59.6836095,13.5922068 59.8466103,14.2861351 59.9129259,14.9925926 C59.9600109,15.3143909 59.983703,15.6391983 59.9838148,15.9644444 L59.9838148,35.1288889 C59.9718645,35.1955144 59.9718645,35.2637448 59.9838148,35.3303704 C59.9707582,35.3968923 59.9707582,35.4653299 59.9838148,35.5318519 L59.9838148,35.5555556 L61.6378889,40.1422222 C61.7205926,40.3437037 61.8032963,40.557037 61.8978148,40.7822222 C62.2923765,41.7899887 62.6315766,42.8186922 62.9138889,43.8637037 C63.2028803,44.8128215 63.3540871,45.7987464 63.3628519,46.7911111 C63.3572829,47.5504226 63.1314928,48.2916883 62.713037,48.9244444 L62.713037,48.8888889 Z" id="Shape" fill="#333333"></path>
                    <path d="M63.0084074,43.9111111 C62.7260951,42.8660996 62.386895,41.8373961 61.9923333,40.8296296 C61.8978148,40.6162963 61.8151111,40.3911111 61.7324074,40.1896296 L60.0783333,35.5555556 C60.0652767,35.4890336 60.0652767,35.420596 60.0783333,35.3540741 C60.0663831,35.2874485 60.0663831,35.2192182 60.0783333,35.1525926 L60.0783333,19.3066667 L6.27366667,19.3066667 L6.27366667,34.3703704 L9.81811111,34.3703704 C10.2552956,34.3703704 10.6097037,34.7258894 10.6097037,35.1644444 C10.6097037,35.6029994 10.2552956,35.9585185 9.81811111,35.9585185 L6.061,35.9585185 L2.98914815,44.4444444 C2.06419055,47.0094634 3.36398715,49.8441956 5.90740741,50.8088889 C6.43070519,50.9951295 6.98262683,51.0874048 7.53785185,51.0814815 L58.6014815,51.0814815 C59.1621021,51.0945854 59.7210174,51.01449 60.2555556,50.8444444 C61.2156412,50.4774523 62.0403942,49.8238549 62.6185185,48.9718519 C63.0618681,48.363045 63.3203517,47.6386685 63.3628519,46.8859259 C63.3893718,45.8823147 63.2699693,44.8801823 63.0084074,43.9111111 Z M33.1878148,21.3925926 C36.2481064,21.3925926 38.728963,23.8812261 38.728963,26.9511111 C38.728963,30.0209961 36.2481064,32.5096296 33.1878148,32.5096296 C30.1275232,32.5096296 27.6466667,30.0209961 27.6466667,26.9511111 C27.6596778,23.8839414 30.1420172,21.4044167 33.1996296,21.4044444 L33.1878148,21.3925926 Z M38.8352963,35.117037 C38.8353445,35.551005 38.4880821,35.904634 38.0555185,35.9111111 L33.3295926,35.9111111 C32.8924081,35.9111111 32.538,35.555592 32.538,35.117037 C32.538,34.678482 32.8924081,34.322963 33.3295926,34.322963 L38.0555185,34.322963 C38.2696209,34.3228673 38.4746311,34.4097744 38.6237818,34.5638589 C38.7729326,34.7179434 38.8535022,34.9260629 38.8471111,35.1407407 L38.8352963,35.117037 Z M23.925,34.3703704 L28.6509259,34.3703704 C29.0881104,34.3703704 29.4425185,34.7258894 29.4425185,35.1644444 C29.4425185,35.6029994 29.0881104,35.9585185 28.6509259,35.9585185 L23.925,35.9585185 C23.4878155,35.9585185 23.1334074,35.6029994 23.1334074,35.1644444 C23.1334074,34.7258894 23.4878155,34.3703704 23.925,34.3703704 Z M19.1990741,35.9585185 L14.4731481,35.9585185 C14.0359636,35.9585185 13.6815556,35.6029994 13.6815556,35.1644444 C13.6815556,34.7258894 14.0359636,34.3703704 14.4731481,34.3703704 L19.1990741,34.3703704 C19.6362586,34.3703704 19.9906667,34.7258894 19.9906667,35.1644444 C19.9906667,35.6029994 19.6362586,35.9585185 19.1990741,35.9585185 Z M43.9629259,48.6637037 C43.9633332,49.1083619 43.6141948,49.4742767 43.1713333,49.4933333 C39.9104444,49.6237037 36.5195926,49.7066667 33.0105926,49.7066667 C29.5015926,49.7066667 26.2170741,49.6355556 23.0034444,49.4933333 C22.5605829,49.4742767 22.2114446,49.1083619 22.2118519,48.6637037 L22.2118519,46.4948148 C22.2118519,41.9437037 27.0795556,38.1985185 33.0932963,38.1985185 C39.107037,38.1985185 43.9747407,41.8844444 43.9747407,46.4948148 L43.9629259,48.6637037 Z M47.5073704,35.922963 L42.7814444,35.922963 C42.3442599,35.922963 41.9898519,35.5674439 41.9898519,35.1288889 C41.9898519,34.6903339 42.3442599,34.3348148 42.7814444,34.3348148 L47.5073704,34.3348148 C47.9445549,34.3348148 48.298963,34.6903339 48.298963,35.1288889 C48.298963,35.5674439 47.9445549,35.922963 47.5073704,35.922963 Z M56.9592222,35.922963 L52.2332963,35.922963 C51.7961118,35.922963 51.4417037,35.5674439 51.4417037,35.1288889 C51.4417037,34.6903339 51.7961118,34.3348148 52.2332963,34.3348148 L56.9592222,34.3348148 C57.3964067,34.3348148 57.7508148,34.6903339 57.7508148,35.1288889 C57.7508148,35.5674439 57.3964067,35.922963 56.9592222,35.922963 Z" id="Shape" fill="#FFFFFF"></path>
                    <path d="M43.384,55.7037037 C43.3786499,56.2593029 42.9445711,56.7154777 42.3915556,56.7466667 C39.3354568,56.8414815 36.2124074,56.8888889 33.0224074,56.8888889 C29.8442222,56.8888889 26.7605556,56.8296296 23.7832222,56.7111111 C23.2302067,56.6799221 22.7961279,56.2237474 22.7907778,55.6681481 L22.7907778,51.437037 L41.4227407,51.437037 C41.9512195,51.4370276 42.4578825,51.648431 42.8304629,52.024404 C43.2030432,52.400377 43.4107753,52.909874 43.4076296,53.44 C43.3958148,54.5185185 43.384,55.7037037 43.384,55.7037037 Z" id="Shape" fill="#333333"></path>
                    <path d="M43.9629259,46.4948148 L43.9629259,48.6637037 C43.9633332,49.1083619 43.6141948,49.4742767 43.1713333,49.4933333 C39.9104444,49.6237037 36.5195926,49.7066667 33.0105926,49.7066667 C29.5015926,49.7066667 26.2170741,49.6355556 23.0034444,49.4933333 C22.5605829,49.4742767 22.2114446,49.1083619 22.2118519,48.6637037 L22.2118519,46.4948148 C22.2118519,41.9437037 27.0795556,38.1985185 33.0932963,38.1985185 C39.107037,38.1985185 43.9629259,41.9437037 43.9629259,46.4948148 Z" id="Shape" fill="#333333"></path>
                    <path d="M38.7407778,26.9748148 C38.7407778,30.0446998 36.2599212,32.5333333 33.1996296,32.5333333 C30.139338,32.5333333 27.6584815,30.0446998 27.6584815,26.9748148 C27.6584815,23.9049298 30.139338,21.4162963 33.1996296,21.4162963 C36.2599212,21.4162963 38.7407778,23.9049298 38.7407778,26.9748148 Z" id="Shape" fill="#333333"></path>
                </g>
            </g>
        </g>
    </g>
</svg>