<?xml version="1.0" encoding="UTF-8"?>
<svg width="76px" height="55px" viewBox="0 0 76 55" version="1.1" xmlns="http://www.w3.org/2000/svg" xmlns:xlink="http://www.w3.org/1999/xlink">
    <!-- Generator: Sketch 48.2 (47327) - http://www.bohemiancoding.com/sketch -->
    <title>dashboardIconHealthRecords-02</title>
    <desc>Created with Sketch.</desc>
    <defs></defs>
    <g id="Homepage-v1---Brand" stroke="none" stroke-width="1" fill="none" fill-rule="evenodd" transform="translate(-153.000000, -972.000000)">
        <g id="Fingertip-Block" transform="translate(61.000000, 837.000000)">
            <g id="Group-2" transform="translate(0.000000, 135.000000)">
                <g id="dashboardIconHealthRecords-02" transform="translate(93.000000, 0.000000)">
                    <path d="M66.8424138,11.8227273 L63.5124138,11.8227273 L63.5124138,40.2641711 C63.5347736,40.9378561 63.2424255,41.5836177 62.7213793,42.0114706 C62.2876947,42.5750533 61.6076545,42.8935584 60.8968966,42.8659893 L42.3586207,42.8659893 C35.6603448,43.0445455 33.7465517,43.1465775 27.0482759,42.8659893 L6.37931034,42.8659893 L6.37931034,47.1513369 C6.37931034,48.9373359 7.08905215,50.6501851 8.35240066,51.9130772 C9.61574918,53.1759692 11.3292175,53.8854545 13.1158621,53.8854545 L66.8424138,53.8854545 C70.5629086,53.8854545 73.5789655,50.8704874 73.5789655,47.1513369 L73.5789655,18.5568449 C73.5789655,14.8376944 70.5629086,11.8227273 66.8424138,11.8227273 Z" id="Shape" fill="#EBF2F3" fill-rule="nonzero"></path>
                    <path d="M66.8424138,11.8227273 L63.5124138,11.8227273 L63.5124138,40.2641711 C63.5347736,40.9378561 63.2424255,41.5836177 62.7213793,42.0114706 C62.2876947,42.5750533 61.6076545,42.8935584 60.8968966,42.8659893 L42.3586207,42.8659893 C35.6603448,43.0445455 33.7465517,43.1465775 27.0482759,42.8659893 L6.37931034,42.8659893 L6.37931034,47.1513369 C6.37931034,48.9373359 7.08905215,50.6501851 8.35240066,51.9130772 C9.61574918,53.1759692 11.3292175,53.8854545 13.1158621,53.8854545 L66.8424138,53.8854545 C70.5629086,53.8854545 73.5789655,50.8704874 73.5789655,47.1513369 L73.5789655,18.5568449 C73.5789655,14.8376944 70.5629086,11.8227273 66.8424138,11.8227273 Z" id="Shape" stroke="#333333" stroke-width="2" stroke-linecap="round" stroke-linejoin="round"></path>
                    <path d="M60.8458621,47.8910695 L7.15758621,47.8910695 C5.3709416,47.8910695 3.65747331,47.1815842 2.3941248,45.9186921 C1.13077629,44.6558001 0.421034483,42.9429509 0.421034483,41.1569519 L0.421034483,12.5624599 C0.421034483,8.84330941 3.43709142,5.82834225 7.15758621,5.82834225 L60.8458621,5.82834225 C62.6391293,5.81815674 64.3624471,6.52314306 65.6340861,7.78714075 C66.905725,9.05113844 67.6207186,10.7698117 67.6206897,12.5624599 L67.6206897,41.1569519 C67.6207186,42.9496 66.905725,44.6682733 65.6340861,45.932271 C64.3624471,47.1962687 62.6391293,47.901255 60.8458621,47.8910695 Z" id="Shape" fill="#FFFFFF" fill-rule="nonzero"></path>
                    <path d="M25.3768966,29.9844385 C23.6927586,34.7799465 17.8748276,36.0681016 17.2241379,36.1956417 C16.5734483,36.0553476 10.7555172,34.7799465 9.07137931,29.9844385 C8.6890667,28.8484778 8.55421165,27.6439181 8.67586207,26.4515775 C8.80558232,25.5930355 9.19775427,24.7956104 9.79862069,24.1686096 C10.6389288,23.3355532 11.7794155,22.8758457 12.9627586,22.8932086 C14.054275,22.9058756 15.1031102,23.3189038 15.91,24.0538235 C16.4500472,24.5947281 16.8563422,25.254173 17.0965517,25.9796791 C17.0965517,26.0571614 17.1593862,26.1199733 17.2368966,26.1199733 C17.3144069,26.1199733 17.3772414,26.0571614 17.3772414,25.9796791 C17.604299,25.2488098 18.0175956,24.5895323 18.5765517,24.0665775 C19.3892524,23.3328389 20.4415448,22.9202354 21.5365517,22.9059626 C22.7198948,22.8885997 23.8603815,23.3483072 24.7006897,24.1813636 C25.2968164,24.8116673 25.6882171,25.6075243 25.8234483,26.4643316 C25.9321208,27.6561951 25.7797369,28.8574173 25.3768966,29.9844385 Z" id="Shape" fill="#F74A2A" fill-rule="nonzero"></path>
                    <path d="M26.2572414,5.82834225 L60.8458621,5.82834225 C62.6391293,5.81815674 64.3624471,6.52314306 65.6340861,7.78714075 C66.905725,9.05113844 67.6207186,10.7698117 67.6206897,12.5624599 L67.6206897,41.1569519 C67.6206897,42.9429509 66.9109479,44.6558001 65.6475993,45.9186921 C64.3842508,47.1815842 62.6707825,47.8910695 60.8841379,47.8910695 L7.15758621,47.8910695 C5.3709416,47.8910695 3.65747331,47.1815842 2.3941248,45.9186921 C1.13077629,44.6558001 0.421034483,42.9429509 0.421034483,41.1569519 L0.421034483,12.5624599 C0.421034483,8.84330941 3.43709142,5.82834225 7.15758621,5.82834225 L26.2955172,5.82834225 L26.2572414,5.82834225 Z" id="Shape" stroke="#333333" stroke-width="2" stroke-linecap="round" stroke-linejoin="round"></path>
                    <path d="M33.9889655,18.620615 L33.9889655,40.4427273" id="Shape" stroke="#333333" stroke-width="1.75" stroke-linecap="round" stroke-linejoin="round"></path>
                    <path d="M43.3537931,22.4085561 L57.6689655,22.4085561" id="Shape" stroke="#333333" stroke-width="1.75" stroke-linecap="round" stroke-linejoin="round"></path>
                    <path d="M43.3537931,29.6783422 L57.6689655,29.6783422" id="Shape" stroke="#333333" stroke-width="1.75" stroke-linecap="round" stroke-linejoin="round"></path>
                    <path d="M45.037931,41.1059358 C44.4203055,39.8799146 44.3058604,38.4613072 44.7189655,37.1521925 C45.407931,35.2390909 47.3344828,34.0657219 47.7044828,34.3463102 C48.0744828,34.6268984 47.3982759,35.379385 47.0027586,37.738877 C46.7348276,39.2821123 46.8751724,39.5116845 47.0027586,39.5499465 C47.3344828,39.6774866 48.1255172,38.1214973 48.4572414,38.2745455 C48.7889655,38.4275936 48.3806897,39.3586364 48.6741379,39.5499465 C48.9675862,39.7412567 49.95,38.0832353 50.8558621,38.2745455 C51.3151724,38.3638235 51.2258621,38.8229679 51.7489655,39.0270321 C52.5017241,39.3203743 53.1013793,38.5423797 54.5558621,38.3765775 C54.9119325,38.3356866 55.2715158,38.3356866 55.6275862,38.3765775" id="Shape" stroke="#00BCD3" stroke-linecap="round" stroke-linejoin="round"></path>
                    <path d="M46.6327586,4.79526738 L46.6327586,1.90010695 C46.6258078,0.923904986 45.8358652,0.134247785 44.8593103,0.127299465 L44.5658621,0.127299465 C43.5843284,0.127274435 42.7866661,0.918952952 42.7796552,1.90010695 L42.7796552,9.75657754 C42.7796303,10.7448003 43.577307,11.5478844 44.5658621,11.554893 L44.8593103,11.554893 C45.3330457,11.5515225 45.7860372,11.3601612 46.1186259,11.022909 C46.4512146,10.6856568 46.6361545,10.2301415 46.6327586,9.75657754 L46.6327586,4.79526738 Z" id="Shape" fill="#333333" fill-rule="nonzero"></path>
                    <path d="M21.3706897,4.79526738 L21.3706897,1.90010695 C21.3777006,0.918952952 22.1753629,0.127274435 23.1568966,0.127299465 L23.4375862,0.127299465 C24.4191199,0.127274435 25.2167821,0.918952952 25.2237931,1.90010695 L25.2237931,9.75657754 C25.2271927,10.2323438 25.0405055,10.6897918 24.7051576,11.0274131 C24.3698096,11.3650343 23.9135366,11.5549052 23.4375862,11.554893 L23.1568966,11.554893 C22.6809461,11.5549052 22.2246732,11.3650343 21.8893252,11.0274131 C21.5539772,10.6897918 21.36729,10.2323438 21.3706897,9.75657754 L21.3706897,4.79526738 Z" id="Shape" fill="#333333" fill-rule="nonzero"></path>
                </g>
            </g>
        </g>
    </g>
</svg>