<?xml version="1.0" encoding="UTF-8"?>
<svg width="65px" height="67px" viewBox="0 0 65 67" version="1.1" xmlns="http://www.w3.org/2000/svg" xmlns:xlink="http://www.w3.org/1999/xlink">
    <!-- Generator: Sketch 48.2 (47327) - http://www.bohemiancoding.com/sketch -->
    <title>dashboardIconFindCare-03</title>
    <desc>Created with Sketch.</desc>
    <defs></defs>
    <g id="Homepage-v1---Brand" stroke="none" stroke-width="1" fill="none" fill-rule="evenodd" transform="translate(-767.000000, -965.000000)">
        <g id="Fingertip-Block" transform="translate(61.000000, 837.000000)">
            <g id="Group-7" transform="translate(608.000000, 129.000000)">
                <g id="dashboardIconFindCare-03" transform="translate(99.000000, 0.000000)">
                    <path d="M1.89,53.5577586 L48.31875,53.5577586 L48.31875,1.12068966 L12.96,1.12068966 L12.70125,1.40086207 C12.5259769,1.67926761 12.3264578,1.94177369 12.105,2.18534483 C9.405,5.13275862 6.84,8.24827586 3.99375,11.0612069 C2.77875,12.2491379 1.51875,13.3810345 0.2475,14.512931 L0.2475,52.5043103 C0.859536716,52.7438189 1.41780802,53.1018767 1.89,53.5577586 Z" id="Shape" fill="#FFFFFF" fill-rule="nonzero"></path>
                    <path d="M0.07875,15.1405172 L10.125,15.1405172 C12.6102814,15.1405172 14.625,13.1335178 14.625,10.6577586 L14.625,0.717241379 L0.07875,15.1405172 Z" id="Shape" fill="#00BCD3" fill-rule="nonzero"></path>
                    <path d="M55.36125,62.4672414 C55.2061915,62.2991369 55.059755,62.1233382 54.9225,61.9405172 L50.31,55.9224138 L48.06,52.9189655 L46.85625,51.35 C46.0308809,50.7193606 45.6534444,49.6651929 45.8918906,48.6565759 C46.1303368,47.6479589 46.940345,46.8723668 47.9614814,46.6749194 C48.9826177,46.4774719 50.0250808,46.8948691 50.625,47.7413793 L52.1325,49.0189655 L55.02375,51.462069 L60.8175,56.3706897 C63.1575,58.3431034 63.64125,61.6267241 61.84125,63.3189655 C60.04125,65.0112069 57.2625,64.462069 55.36125,62.4672414 Z" id="Shape" fill="#F6EA83" fill-rule="nonzero"></path>
                    <path d="M55.36125,62.4672414 C55.2061915,62.2991369 55.059755,62.1233382 54.9225,61.9405172 L50.31,55.9224138 L48.06,52.9189655 L46.85625,51.35 C46.0308809,50.7193606 45.6534444,49.6651929 45.8918906,48.6565759 C46.1303368,47.6479589 46.940345,46.8723668 47.9614814,46.6749194 C48.9826177,46.4774719 50.0250808,46.8948691 50.625,47.7413793 L52.1325,49.0189655 L55.02375,51.462069 L60.8175,56.3706897 C63.1575,58.3431034 63.64125,61.6267241 61.84125,63.3189655 C60.04125,65.0112069 57.2625,64.462069 55.36125,62.4672414 Z" id="Shape" stroke="#333333" stroke-width="2" stroke-linecap="round" stroke-linejoin="round"></path>
                    <path d="M55.36125,62.4672414 C55.2061915,62.2991369 55.059755,62.1233382 54.9225,61.9405172 L50.31,55.9224138 L48.06,52.9189655 L46.85625,51.35 C46.0308809,50.7193606 45.6534444,49.6651929 45.8918906,48.6565759 C46.1303368,47.6479589 46.940345,46.8723668 47.9614814,46.6749194 C48.9826177,46.4774719 50.0250808,46.8948691 50.625,47.7413793 L52.1325,49.0189655 L55.02375,51.462069 L60.8175,56.3706897 C63.1575,58.3431034 63.64125,61.6267241 61.84125,63.3189655 C60.04125,65.0112069 57.2625,64.462069 55.36125,62.4672414 Z" id="Shape" stroke="#333333" stroke-width="2" stroke-linecap="round" stroke-linejoin="round"></path>
                    <ellipse id="Oval" fill="#FFFFFF" fill-rule="nonzero" cx="39.735" cy="39.6836207" rx="17.235" ry="17.1689655"></ellipse>
                    <ellipse id="Oval" fill="#EBF2F3" fill-rule="nonzero" cx="39.735" cy="39.6836207" rx="14.18625" ry="14.1318966"></ellipse>
                    <ellipse id="Oval" stroke="#333333" stroke-width="2" stroke-linecap="round" stroke-linejoin="round" cx="39.735" cy="39.6836207" rx="17.235" ry="17.1689655"></ellipse>
                    <path d="M30.06,53.8827586 L4.5,53.8827586 C2.01471863,53.8827586 4.99600361e-16,51.8757592 0,49.4 L0,15.1405172" id="Shape" stroke="#333333" stroke-width="2" stroke-linecap="round" stroke-linejoin="round"></path>
                    <path d="M14.535,0.717241379 L44.505,0.717241379 C46.9902814,0.717241379 49.005,2.72424078 49.005,5.2 L49.005,24.2517241" id="Shape" stroke="#333333" stroke-width="2" stroke-linecap="round" stroke-linejoin="round"></path>
                    <path d="M8.69625,26.8965517 L20.79,26.8965517" id="Shape" stroke="#333333" stroke-width="2" stroke-linecap="round" stroke-linejoin="round"></path>
                    <path d="M21.47625,16.1939655 L20.25,16.1939655" id="Shape" stroke="#333333" stroke-width="2" stroke-linecap="round" stroke-linejoin="round"></path>
                    <path d="M39.33,16.1939655 L25.32375,16.1939655" id="Shape" stroke="#333333" stroke-width="2" stroke-linecap="round" stroke-linejoin="round"></path>
                    <path d="M15.87375,38.7646552 L17.28,38.7646552" id="Shape" stroke="#333333" stroke-width="2" stroke-linecap="round" stroke-linejoin="round"></path>
                    <path d="M8.69625,38.7646552 L12.27375,38.7646552" id="Shape" stroke="#333333" stroke-width="2" stroke-linecap="round" stroke-linejoin="round"></path>
                    <path d="M46.9575,46.0603448 C46.3508886,42.5619971 43.3044343,40.006486 39.740625,40.006486 C36.1768157,40.006486 33.1303614,42.5619971 32.52375,46.0603448 C32.4592291,46.4568854 32.4253796,46.8577772 32.4225,47.2594828 L32.4225,47.8310345 C32.4225,47.9231743 32.4592432,48.0115404 32.5246465,48.0766931 C32.5900498,48.1418459 32.6787557,48.1784483 32.77125,48.1784483 C34.88625,48.3801724 37.215,48.5146552 39.72375,48.5146552 C42.2325,48.5146552 44.58375,48.3801724 46.71,48.1784483 C46.802676,48.1789226 46.8917303,48.1426309 46.9575,48.0775862 C47.0227948,48.0120685 47.0592261,47.9233554 47.05875,47.8310345 L47.05875,47.2594828 C47.05552,46.8577932 47.0216727,46.456928 46.9575,46.0603448 Z" id="Shape" fill="#333333" fill-rule="nonzero"></path>
                    <ellipse id="Oval" fill="#333333" fill-rule="nonzero" cx="39.74625" cy="33.8784483" rx="3.81375" ry="3.79913793"></ellipse>
                    <path d="M0.07875,15.1405172 L10.125,15.1405172 C12.6102814,15.1405172 14.625,13.1335178 14.625,10.6577586 L14.625,0.717241379 L0.07875,15.1405172 Z" id="Shape" stroke="#333333" stroke-width="2" stroke-linecap="round" stroke-linejoin="round"></path>
                </g>
            </g>
        </g>
    </g>
</svg>